# Blender 5.0.1
# www.blender.org
mtllib a10.mtl
o A10
v 11.473408 -7.235067 71.926270
v 0.000000 26.944517 67.944962
v 5.882368 -4.580874 -133.405701
v 4.030464 14.536713 119.721725
v 9.258752 -8.037110 127.213310
v 5.608704 -5.515254 141.623291
v 0.000000 -0.213749 147.038971
v 3.107328 8.532471 -131.877380
v 13.380864 15.588358 72.020737
v 9.544192 7.760138 126.735619
v 5.554432 4.883722 140.613113
v 3.137536 28.727045 85.702911
v 12.377856 13.331719 97.195518
v 10.926592 -7.580153 97.077248
v 7.537408 19.738888 99.076355
v 3.842560 25.987591 102.479103
v 0.000000 -6.945802 -131.874557
v 0.000000 9.468150 -131.881210
v 0.000000 -10.067963 71.814140
v 5.806592 24.373253 80.721153
v 0.000000 -9.609463 126.875137
v 0.000000 15.027466 124.973572
v 0.000000 -6.941430 141.465607
v 0.000000 8.327179 139.267838
v 0.000000 31.969032 90.692612
v 0.000000 28.836872 106.463997
v 0.000000 -10.004473 97.212669
v 12.778752 -9.178878 24.672256
v 8.043264 19.198465 28.193535
v 0.000000 22.414850 28.686079
v 0.000000 -9.492222 23.545856
v 10.573568 -8.111618 -31.433216
v 4.754176 14.554110 -32.408577
v 0.000000 16.482815 -33.283840
v 0.000000 -8.502275 -33.204735
v 5.868800 -3.169290 -133.772293
v 13.704960 0.942853 71.695618
v 10.320640 -2.768374 127.214081
v 6.405120 -2.744821 140.997116
v 12.804608 -0.666361 97.077248
v 0.000000 -1.221386 -137.440002
v 13.223168 0.628482 24.882175
v 11.116800 -0.471554 -25.849344
v 51.804928 0.445186 22.825983
v 52.300545 -6.431999 21.553921
v 51.847168 -5.761538 -27.103231
v 51.477249 -0.147458 -21.891071
v 147.471878 7.069697 10.953471
v 145.174271 3.240449 11.072512
v 145.184769 3.764479 -20.428801
v 147.083008 6.881022 -17.588480
v 151.721725 3.012096 -3.979008
v 150.759430 1.408768 -3.979008
v 150.764038 1.651199 -18.559744
v 151.523071 2.915583 -18.559744
v 5.628160 17.580288 -0.106241
v 0.000000 19.674368 0.109311
v 0.000000 -9.077504 -0.229631
v 12.026624 -8.985856 -0.043775
v 12.532224 4.293888 1.027328
v 52.103168 -6.140160 0.381184
v 51.641087 3.908864 0.467456
v 145.178879 3.467264 -2.567424
v 147.277573 10.735360 -3.317505
v 150.761734 1.529855 -11.269376
v 151.622406 2.963711 -11.269376
v 32.957951 45.023483 -68.490753
v 32.957951 39.529980 -29.533443
v 50.125568 37.914875 -68.342781
v 45.345791 34.400509 -29.426689
v 57.236481 20.753147 -67.985405
v 50.476799 22.017021 -29.168898
v 50.125568 3.591419 -67.628029
v 45.345791 9.633278 -28.910849
v 32.957951 -3.517189 -67.480064
v 32.957951 4.504062 -28.804096
v 14.829056 5.900283 -67.586044
v 20.570112 9.633278 -28.910849
v 8.679424 20.753147 -67.985405
v 15.439104 22.017021 -29.168898
v 15.790336 37.914875 -68.342781
v 20.570112 34.400509 -29.426689
v 50.125568 39.178749 -29.526020
v 32.957951 46.287357 -29.674244
v 57.236481 22.017021 -29.168898
v 50.125568 4.855294 -28.811520
v 32.957951 -2.253314 -28.663551
v 14.834176 7.098366 -30.857216
v 9.635840 19.643646 -31.118593
v 15.790336 39.178749 -29.526020
v 38.111233 26.700541 -43.650562
v 32.957951 28.834301 -43.695107
v 40.245762 21.548796 -43.543297
v 38.111233 16.397308 -43.436031
v 32.957951 14.263549 -43.391743
v 27.804672 16.397308 -43.436031
v 25.670143 21.548796 -43.543297
v 27.804672 26.700541 -43.650562
v 39.151871 27.740667 -43.672325
v 32.957951 30.305277 -43.725826
v 41.717503 21.548796 -43.543297
v 39.151871 15.357182 -43.414528
v 32.957951 12.792317 -43.361023
v 26.764032 15.357182 -43.414528
v 24.198400 21.548796 -43.543297
v 26.764032 27.740667 -43.672325
v 38.111233 27.056126 -32.727043
v 32.957951 29.189886 -32.771332
v 40.245762 21.904638 -32.619778
v 38.111233 16.753151 -32.512512
v 32.957951 14.619133 -32.467968
v 27.804672 16.753151 -32.512512
v 25.670143 21.904638 -32.619778
v 27.804672 27.056126 -32.727043
v 32.957951 22.043901 -28.337666
v 32.957951 43.031803 -25.821444
v 47.735554 36.912636 -25.693954
v 53.856770 22.140158 -25.386242
v 47.735554 7.367422 -25.078785
v 32.957951 1.248510 -24.951296
v 18.180351 7.367422 -25.078785
v 12.059136 22.140158 -25.386242
v 18.180351 36.912636 -25.693954
v 32.957951 35.987194 -91.773697
v 44.333824 31.276793 -92.435966
v 49.045761 19.905016 -94.034431
v 44.333824 8.532985 -95.632896
v 32.957951 3.822585 -96.295166
v 20.156672 10.447609 -93.363197
v 17.293568 17.632504 -92.340477
v 21.582081 31.276793 -92.435966
v 32.957951 31.479803 -86.230530
v 42.030334 27.723259 -86.758400
v 45.788158 18.654202 -88.033279
v 42.030334 9.584889 -89.308159
v 32.957951 5.828345 -89.836288
v 23.885824 9.584889 -89.308159
v 20.128000 18.654202 -88.033279
v 23.885824 27.723259 -86.758400
v 23.885824 28.974072 -92.759552
v 20.128000 19.905016 -94.034431
v 23.885824 10.835705 -95.309311
v 32.957951 7.079161 -95.837440
v 42.030334 10.835705 -95.309311
v 45.788158 19.905016 -94.034431
v 42.030334 28.974072 -92.759552
v 32.957951 32.730618 -92.231422
v 32.957951 30.255096 -99.632385
v 39.734272 27.406841 -99.677185
v 42.541058 20.530169 -99.785469
v 39.734272 13.653752 -99.893761
v 32.957951 10.805241 -99.938812
v 26.181631 13.653752 -99.893761
v 23.374847 20.530169 -99.785469
v 26.181631 27.406841 -99.677185
v 9.735936 18.955780 41.969151
v 0.000000 23.707396 41.401089
v 0.000000 -9.768189 42.870014
v 11.560448 -8.483582 42.464512
v 13.334272 0.517123 39.545601
v 146.322433 5.120001 15.253504
v 14.360832 -4.745470 30.920704
v 52.082176 -3.036926 27.475712
v 15.790336 4.855294 -28.811520
v 15.790336 3.591419 -67.628029
v 8.679424 22.017021 -29.168898
v 9.594624 18.430714 -67.849472
v 21.582081 8.532985 -95.632896
v 16.870144 19.905016 -94.034431
v 6.016000 5.794811 -66.700035
v 4.402432 9.279483 -66.963203
v 7.974400 7.095037 -30.018305
v 6.359040 10.584318 -30.279167
v 3.190016 5.966585 -92.490242
v 2.332160 7.995641 -91.469055
v 9.773824 11.853049 -91.904770
v 8.122624 12.463612 -67.406334
v 8.708608 13.202174 -30.699011
v 10.707200 8.498942 -30.437887
v 10.131456 7.766267 -67.142914
v 10.865152 9.150457 -92.926720
v 7.208704 -7.464200 -104.558594
v 3.597056 10.323705 -102.048256
v 0.000000 11.554809 -102.013443
v 0.000000 -7.408904 -102.017281
v 7.310592 -2.784520 -105.234428
v 44.192257 -3.696650 -133.827835
v 44.190975 -4.761098 -133.551102
v 44.321537 -7.985928 -105.086975
v 44.459007 -3.304200 -104.701950
v 49.100800 -4.735753 -118.739716
v 49.099262 -6.126345 -118.377983
v 49.174015 -5.871112 -107.489792
v 49.203457 -4.584712 -107.541245
v 7.436288 -5.116680 -101.258751
v 44.414974 -5.643784 -101.277443
v 48.065792 -2.523911 -97.390335
v 48.609535 38.356472 -104.186371
v 48.065792 -2.523914 -134.775299
v 48.609535 38.356468 -129.230087
v 51.360256 -2.523911 -97.390335
v 50.816513 38.356472 -104.186371
v 51.360256 -2.523914 -134.775299
v 50.816513 38.356468 -129.230087
v 48.065792 -5.025290 -134.775299
v 48.065792 -5.025287 -97.390335
v 51.360256 -5.025290 -134.775299
v 51.360256 -5.025287 -97.390335
v 49.195263 -10.813449 -114.644737
v 49.195263 -11.744264 -102.928894
v 50.231041 -10.813449 -114.644737
v 50.231041 -11.744264 -102.928894
v 48.966145 42.142967 -110.323196
v 48.966145 41.518581 -127.262207
v 50.459904 41.518581 -127.262207
v 50.459904 42.142967 -110.323196
v 38.449921 -19.086079 25.864706
v 38.449921 -6.224638 26.019072
v 41.570560 -14.254081 -8.546815
v 41.304321 -9.596673 -13.505279
v 50.768894 -19.086079 25.864706
v 50.768894 -6.224638 26.019072
v 47.648254 -14.254081 -8.546815
v 47.914497 -9.596673 -13.505279
v 40.806400 -19.237116 43.757057
v 40.806400 -11.944446 43.770622
v 48.412415 -11.944446 43.770622
v 48.412415 -19.237116 43.757057
v 44.609280 -16.197884 47.809536
v 44.609280 -14.647809 -9.444607
v 44.609280 -8.881153 -14.486271
v 44.609280 -21.215487 25.851137
v 44.609280 -3.769086 26.032640
v 44.609280 -21.060349 43.107327
v 44.609280 -10.463997 43.125248
v 32.957951 30.102009 -93.413887
v 39.734272 27.253752 -93.458687
v 42.541058 20.377081 -93.566978
v 39.734272 13.500409 -93.675262
v 32.957951 10.652153 -93.720322
v 26.181631 13.500409 -93.675262
v 23.374847 20.377081 -93.566978
v 26.181631 27.253752 -93.458687
v -11.473408 -7.235067 71.926270
v -5.882368 -4.580874 -133.405701
v -4.030464 14.536713 119.721725
v -9.258752 -8.037110 127.213310
v -5.608704 -5.515254 141.623291
v -3.107328 8.532471 -131.877380
v -13.380864 15.588358 72.020737
v -9.544192 7.760138 126.735619
v -5.554432 4.883722 140.613113
v -3.137536 28.727045 85.702911
v -12.377856 13.331719 97.195518
v -10.926592 -7.580153 97.077248
v -7.537408 19.738888 99.076355
v -3.842560 25.987591 102.479103
v -5.806592 24.373253 80.721153
v -12.778752 -9.178878 24.672256
v -8.043264 19.198465 28.193535
v -10.573568 -8.111618 -31.433216
v -4.754176 14.554110 -32.408577
v -5.868800 -3.169290 -133.772293
v -13.704960 0.942853 71.695618
v -10.320640 -2.768374 127.214081
v -6.405120 -2.744821 140.997116
v -12.804608 -0.666361 97.077248
v -13.223168 0.628482 24.882175
v -11.116800 -0.471554 -25.849344
v -51.804928 0.445186 22.825983
v -52.300545 -6.431999 21.553921
v -51.847168 -5.761538 -27.103231
v -51.477249 -0.147458 -21.891071
v -147.471878 7.069697 10.953471
v -145.174271 3.240449 11.072512
v -145.184769 3.764479 -20.428801
v -147.083008 6.881022 -17.588480
v -151.721725 3.012096 -3.979008
v -150.759430 1.408768 -3.979008
v -150.764038 1.651199 -18.559744
v -151.523071 2.915583 -18.559744
v -5.628160 17.580288 -0.106241
v -12.026624 -8.985856 -0.043775
v -12.532224 4.293888 1.027328
v -52.103168 -6.140160 0.381184
v -51.641087 3.908864 0.467456
v -145.178879 3.467264 -2.567424
v -147.277573 10.735360 -3.317505
v -150.761734 1.529855 -11.269376
v -151.622406 2.963711 -11.269376
v -32.957951 45.023483 -68.490753
v -32.957951 39.529980 -29.533443
v -50.125568 37.914875 -68.342781
v -45.345791 34.400509 -29.426689
v -57.236481 20.753147 -67.985405
v -50.476799 22.017021 -29.168898
v -50.125568 3.591419 -67.628029
v -45.345791 9.633278 -28.910849
v -32.957951 -3.517189 -67.480064
v -32.957951 4.504062 -28.804096
v -14.829056 5.900283 -67.586044
v -20.570112 9.633278 -28.910849
v -8.679424 20.753147 -67.985405
v -15.439104 22.017021 -29.168898
v -15.790336 37.914875 -68.342781
v -20.570112 34.400509 -29.426689
v -50.125568 39.178749 -29.526020
v -32.957951 46.287357 -29.674244
v -57.236481 22.017021 -29.168898
v -50.125568 4.855294 -28.811520
v -32.957951 -2.253314 -28.663551
v -14.834176 7.098366 -30.857216
v -9.635840 19.643646 -31.118593
v -15.790336 39.178749 -29.526020
v -38.111233 26.700541 -43.650562
v -32.957951 28.834301 -43.695107
v -40.245762 21.548796 -43.543297
v -38.111233 16.397308 -43.436031
v -32.957951 14.263549 -43.391743
v -27.804672 16.397308 -43.436031
v -25.670143 21.548796 -43.543297
v -27.804672 26.700541 -43.650562
v -39.151871 25.211132 -48.189697
v -32.957951 27.775740 -48.242947
v -41.717503 19.019260 -48.060673
v -39.151871 12.827644 -47.931904
v -32.957951 10.262780 -47.878399
v -26.764032 12.827644 -47.931904
v -24.198400 19.019260 -48.060673
v -26.764032 25.211132 -48.189697
v -38.111233 27.056126 -32.727043
v -32.957951 29.189886 -32.771332
v -40.245762 21.904638 -32.619778
v -38.111233 16.753151 -32.512512
v -32.957951 14.619133 -32.467968
v -27.804672 16.753151 -32.512512
v -25.670143 21.904638 -32.619778
v -27.804672 27.056126 -32.727043
v -32.957951 22.043901 -28.337666
v -32.957951 43.031803 -25.821444
v -47.735554 36.912636 -25.693954
v -53.856770 22.140158 -25.386242
v -47.735554 7.367422 -25.078785
v -32.957951 1.248510 -24.951296
v -18.180351 7.367422 -25.078785
v -12.059136 22.140158 -25.386242
v -18.180351 36.912636 -25.693954
v -32.957951 35.987194 -91.773697
v -44.333824 31.276793 -92.435966
v -49.045761 19.905016 -94.034431
v -44.333824 8.532985 -95.632896
v -32.957951 3.822585 -96.295166
v -20.156672 10.447609 -93.363197
v -17.293568 17.632504 -92.340477
v -21.582081 31.276793 -92.435966
v -32.957951 31.479803 -86.230530
v -42.030334 27.723259 -86.758400
v -45.788158 18.654202 -88.033279
v -42.030334 9.584889 -89.308159
v -32.957951 5.828345 -89.836288
v -23.885824 9.584889 -89.308159
v -20.128000 18.654202 -88.033279
v -23.885824 27.723259 -86.758400
v -23.885824 28.974072 -92.759552
v -20.128000 19.905016 -94.034431
v -23.885824 10.835705 -95.309311
v -32.957951 7.079161 -95.837440
v -42.030334 10.835705 -95.309311
v -45.788158 19.905016 -94.034431
v -42.030334 28.974072 -92.759552
v -32.957951 32.730618 -92.231422
v -32.957951 30.255096 -99.632385
v -39.734272 27.406841 -99.677185
v -42.541058 20.530169 -99.785469
v -39.734272 13.653752 -99.893761
v -32.957951 10.805241 -99.938812
v -26.181631 13.653752 -99.893761
v -23.374847 20.530169 -99.785469
v -26.181631 27.406841 -99.677185
v -9.735936 18.955780 41.969151
v -11.560448 -8.483582 42.464512
v -13.334272 0.517123 39.545601
v -146.322433 5.120001 15.253504
v -14.360832 -4.745470 30.920704
v -52.082176 -3.036926 27.475712
v -15.790336 4.855294 -28.811520
v -15.790336 3.591419 -67.628029
v -8.679424 22.017021 -29.168898
v -9.594624 18.430714 -67.849472
v -21.582081 8.532985 -95.632896
v -16.870144 19.905016 -94.034431
v -6.016000 5.794811 -66.700035
v -4.402432 9.279483 -66.963203
v -7.974400 7.095037 -30.018305
v -6.359040 10.584318 -30.279167
v -3.190016 5.966585 -92.490242
v -2.332160 7.995641 -91.469055
v -9.773824 11.853049 -91.904770
v -8.122624 12.463612 -67.406334
v -8.708608 13.202174 -30.699011
v -10.707200 8.498942 -30.437887
v -10.131456 7.766267 -67.142914
v -10.865152 9.150457 -92.926720
v -7.208704 -7.464200 -104.558594
v -3.597056 10.323705 -102.048256
v -7.310592 -2.784520 -105.234428
v -44.192257 -3.696650 -133.827835
v -44.190975 -4.761098 -133.551102
v -44.321537 -7.985928 -105.086975
v -44.459007 -3.304200 -104.701950
v -49.100800 -4.735753 -118.739716
v -49.099262 -6.126345 -118.377983
v -49.174015 -5.871112 -107.489792
v -49.203457 -4.584712 -107.541245
v -7.436288 -5.116680 -101.258751
v -44.414974 -5.643784 -101.277443
v -48.065792 -2.523911 -97.390335
v -48.609535 38.356472 -104.186371
v -48.065792 -2.523914 -134.775299
v -48.609535 38.356468 -129.230087
v -51.360256 -2.523911 -97.390335
v -50.816513 38.356472 -104.186371
v -51.360256 -2.523914 -134.775299
v -50.816513 38.356468 -129.230087
v -48.065792 -5.025290 -134.775299
v -48.065792 -5.025287 -97.390335
v -51.360256 -5.025290 -134.775299
v -51.360256 -5.025287 -97.390335
v -49.195263 -10.813449 -114.644737
v -49.195263 -11.744264 -102.928894
v -50.231041 -10.813449 -114.644737
v -50.231041 -11.744264 -102.928894
v -48.966145 42.142967 -110.323196
v -48.966145 41.518581 -127.262207
v -50.459904 41.518581 -127.262207
v -50.459904 42.142967 -110.323196
v -38.449921 -19.086079 25.864706
v -38.449921 -6.224638 26.019072
v -41.570560 -14.254081 -8.546815
v -41.304321 -9.596673 -13.505279
v -50.768894 -19.086079 25.864706
v -50.768894 -6.224638 26.019072
v -47.648254 -14.254081 -8.546815
v -47.914497 -9.596673 -13.505279
v -40.806400 -19.237116 43.757057
v -40.806400 -11.944446 43.770622
v -48.412415 -11.944446 43.770622
v -48.412415 -19.237116 43.757057
v -44.609280 -16.197884 47.809536
v -44.609280 -14.647809 -9.444607
v -44.609280 -8.881153 -14.486271
v -44.609280 -21.215487 25.851137
v -44.609280 -3.769086 26.032640
v -44.609280 -21.060349 43.107327
v -44.609280 -10.463997 43.125248
v -32.957951 30.102009 -93.413887
v -39.734272 27.253752 -93.458687
v -42.541058 20.377081 -93.566978
v -39.734272 13.500409 -93.675262
v -32.957951 10.652153 -93.720322
v -26.181631 13.500409 -93.675262
v -23.374847 20.377081 -93.566978
v -26.181631 27.253752 -93.458687
vn -0.0000 -0.1014 -0.9948
vn 0.6203 0.6368 -0.4579
vn 0.4478 0.1520 -0.8811
vn 0.8045 0.5894 -0.0739
vn 0.9951 -0.0984 -0.0041
vn 0.9978 0.0612 0.0239
vn 0.9920 -0.1143 0.0542
vn 0.8562 0.4506 0.2526
vn 0.9826 -0.0598 0.1756
vn -0.0000 -1.0000 0.0084
vn 0.6991 -0.7150 0.0078
vn -0.0000 -1.0000 -0.0079
vn -0.0000 -0.9944 0.1058
vn 0.5981 -0.5845 0.5483
vn -0.0000 -0.8778 0.4790
vn -0.0000 -1.0000 0.0014
vn 0.6870 -0.7094 0.1575
vn 0.6783 0.4839 0.5529
vn 0.8702 -0.0160 0.4925
vn -0.0000 0.0457 0.9990
vn -0.0000 0.9934 -0.1150
vn -0.0000 0.9957 -0.0923
vn 0.6640 0.6746 0.3226
vn 0.9362 0.3306 0.1191
vn 0.8469 0.5089 0.1542
vn 0.7687 0.6366 -0.0614
vn 0.9224 0.3849 -0.0313
vn 0.6955 -0.7182 0.0220
vn -0.0000 0.8375 0.5465
vn -0.0000 0.9954 -0.0957
vn 0.7354 0.6737 -0.0726
vn 0.6609 0.7434 -0.1033
vn 0.0388 -0.9991 -0.0197
vn -0.0000 -1.0000 0.0037
vn -0.0000 -0.9998 -0.0218
vn 0.5662 0.8217 -0.0649
vn 0.6974 0.6788 0.2299
vn 0.6808 0.7234 0.1151
vn 0.7151 0.6953 -0.0719
vn 0.6888 0.6418 -0.3371
vn -0.0000 -0.9999 -0.0115
vn 0.5194 -0.8064 -0.2829
vn -0.0000 -0.9999 -0.0166
vn -0.0000 0.9968 -0.0802
vn 0.7223 0.6893 -0.0560
vn -0.0000 0.9975 -0.0706
vn 0.9591 -0.0174 0.2824
vn 0.8873 -0.1605 0.4324
vn 0.1052 -0.9613 0.2548
vn 0.1152 -0.0648 0.9912
vn 0.6540 -0.7545 0.0538
vn -0.0000 -0.9199 -0.3922
vn 0.0294 -0.7006 -0.7130
vn -0.0014 0.8783 -0.4781
vn 0.0841 -0.3017 -0.9497
vn 0.1318 -0.4031 -0.9056
vn 0.0866 -0.9961 -0.0146
vn -0.0009 0.9187 0.3950
vn -0.0246 0.9996 -0.0111
vn 0.3304 0.8093 -0.4858
vn 0.2957 -0.7373 -0.6074
vn 0.4306 -0.8785 0.2071
vn 0.5926 -0.0046 0.8055
vn 0.7386 0.5135 0.4368
vn 0.4252 0.9051 0.0027
vn -0.1270 -0.9918 -0.0165
vn 0.3302 -0.9438 -0.0156
vn 0.9901 -0.0426 0.1336
vn 0.3725 -0.9205 0.1178
vn 0.9960 0.0635 -0.0631
vn 0.7500 0.1428 -0.6458
vn 0.1452 -0.9792 0.1415
vn -0.0000 0.9812 -0.1932
vn 0.6683 0.6759 0.3107
vn 0.6964 0.6945 -0.1807
vn 0.9438 0.0079 0.3303
vn 0.9887 -0.0008 -0.1501
vn 0.6664 -0.6583 0.3499
vn 0.7020 -0.7021 -0.1191
vn -0.0000 -0.9337 0.3580
vn -0.0000 -0.9943 -0.1062
vn -0.7015 -0.7030 -0.1175
vn -0.5102 0.3391 0.7904
vn -0.9742 0.2192 0.0541
vn -0.7487 0.1634 0.6425
vn -0.9438 0.0079 0.3303
vn -0.6964 0.6945 -0.1807
vn -0.9884 0.0053 -0.1516
vn -0.6683 0.6759 0.3107
vn 0.6759 0.0668 -0.7339
vn 0.1808 0.0215 0.9833
vn 0.1252 -0.1038 0.9867
vn -0.0000 -0.1541 0.9881
vn -0.6665 -0.6583 0.3499
vn -0.1252 -0.1038 0.9867
vn -0.1808 0.0215 0.9833
vn -0.1303 0.1518 0.9798
vn -0.0000 0.9532 0.3025
vn -0.0000 0.2072 0.9783
vn -0.0000 -0.7776 0.6288
vn 0.1303 0.1518 0.9798
vn 0.5601 -0.5469 0.6222
vn 0.7951 0.0131 0.6064
vn 0.5642 0.5772 0.5904
vn -0.0000 0.8120 0.5837
vn -0.5642 0.5772 0.5904
vn -0.7951 0.0131 0.6064
vn -0.5601 -0.5469 0.6222
vn 0.2437 -0.0788 -0.9666
vn -0.1087 0.1690 -0.9796
vn 0.3536 0.1584 -0.9219
vn -0.8447 0.5349 -0.0200
vn -0.8611 0.3081 -0.4045
vn 0.4968 -0.4261 -0.7561
vn -0.4592 0.5218 -0.7190
vn -0.6759 0.0668 -0.7340
vn 0.4592 0.5218 -0.7190
vn -0.4906 -0.4286 -0.7587
vn -0.0000 -0.6414 -0.7672
vn -0.0000 0.6990 -0.7151
vn -0.4389 0.5320 -0.7241
vn -0.3536 0.1584 -0.9219
vn -0.5951 0.1025 -0.7971
vn -0.4045 -0.2932 -0.8662
vn -0.0000 -0.1756 -0.9845
vn -0.0000 -0.4482 -0.8939
vn 0.4045 -0.2932 -0.8662
vn 0.4389 0.5320 -0.7241
vn 0.2588 0.4135 -0.8729
vn -0.0000 0.7214 -0.6925
vn -0.2588 0.4135 -0.8729
vn -0.2437 -0.0789 -0.9666
vn 0.5951 0.1025 -0.7971
vn -0.0000 0.5243 -0.8515
vn -0.0000 -0.0104 -0.9999
vn 0.1000 0.0440 -0.9940
vn 0.1087 0.1690 -0.9796
vn 0.0082 0.2443 -0.9697
vn -0.0000 0.2104 -0.9776
vn -0.0082 0.2443 -0.9697
vn -0.1000 0.0441 -0.9940
vn -0.0000 0.8952 0.4456
vn -0.0000 0.9951 -0.0985
vn -0.8119 -0.5613 0.1607
vn -0.9632 -0.2498 0.0997
vn -0.9942 -0.0351 -0.1013
vn -0.7377 -0.4775 -0.4773
vn -0.8804 -0.0763 -0.4681
vn -0.6784 -0.7300 -0.0822
vn -0.3254 -0.9447 0.0411
vn -0.3862 -0.6341 -0.6699
vn 0.1600 -0.5252 0.8358
vn 0.0370 -0.9991 -0.0188
vn 0.0519 -0.4911 -0.8695
vn -0.4258 0.6133 -0.6653
vn -0.2219 -0.7237 0.6535
vn 0.1068 -0.9888 0.1041
vn 0.4718 -0.6370 -0.6096
vn 0.2196 -0.9434 0.2487
vn -0.0000 0.8607 -0.5091
vn 0.2681 0.9062 0.3269
vn 0.8211 0.5538 -0.1385
vn 0.4745 0.5078 -0.7190
vn 0.3696 -0.0250 0.9288
vn 0.7411 -0.6540 -0.1518
vn 0.7719 0.5157 0.3718
vn 0.8293 -0.4343 0.3517
vn -0.6235 0.4441 0.6435
vn -0.6936 0.0527 -0.7184
vn -0.6904 0.0636 0.7207
vn -0.6660 0.2765 -0.6928
vn 0.6936 0.0527 -0.7184
vn 0.6235 0.4441 0.6435
vn 0.6904 0.0636 0.7207
vn -0.5950 -0.4863 -0.6399
vn 0.6660 0.2765 -0.6928
vn 0.6111 0.7682 0.1907
vn -0.6472 -0.2824 0.7081
vn 0.5570 -0.7741 0.3008
vn 0.6472 -0.2824 0.7081
vn 0.5950 -0.4863 -0.6399
vn 0.6126 -0.7808 -0.1229
vn -0.5570 -0.7741 0.3008
vn -0.6125 -0.7808 -0.1229
vn -0.5721 0.7189 -0.3948
vn 0.5721 0.7189 -0.3948
vn -0.6111 0.7682 0.1907
vn -0.9119 0.3781 0.1593
vn -0.6854 -0.6604 -0.3068
vn -0.8190 -0.5730 -0.0305
vn -0.0000 -0.8710 -0.4912
vn 0.4804 -0.6071 -0.6330
vn 0.6853 -0.6604 -0.3068
vn 0.9119 0.3782 0.1593
vn 0.8190 -0.5730 -0.0305
vn -0.0000 -0.9968 -0.0796
vn -0.4804 -0.6071 -0.6330
vn 0.5514 -0.5339 -0.6411
vn 0.7757 0.0116 -0.6310
vn -0.5513 -0.5339 -0.6411
vn -0.5524 0.5581 -0.6192
vn 0.5524 0.5581 -0.6192
vn -0.0000 -0.7643 -0.6448
vn -0.0000 0.7896 -0.6137
vn -0.7757 0.0116 -0.6310
vn -0.6203 0.6368 -0.4579
vn -0.9951 -0.0984 -0.0041
vn -0.8045 0.5894 -0.0739
vn -0.9978 0.0612 0.0239
vn -0.9920 -0.1143 0.0542
vn -0.8562 0.4506 0.2526
vn -0.9362 0.3306 0.1191
vn -0.6991 -0.7150 0.0078
vn -0.6540 -0.7545 0.0538
vn -0.5981 -0.5845 0.5483
vn -0.6870 -0.7094 0.1575
vn -0.6955 -0.7182 0.0220
vn -0.9826 -0.0598 0.1756
vn -0.6783 0.4839 0.5529
vn -0.8702 -0.0160 0.4925
vn -0.6640 0.6746 0.3226
vn -0.8469 0.5089 0.1542
vn -0.7687 0.6366 -0.0614
vn -0.9224 0.3849 -0.0313
vn -0.7354 0.6737 -0.0726
vn -0.0388 -0.9991 -0.0197
vn -0.5662 0.8217 -0.0649
vn -0.6609 0.7434 -0.1033
vn -0.6808 0.7234 0.1151
vn -0.7151 0.6953 -0.0719
vn -0.7223 0.6893 -0.0560
vn -0.5194 -0.8064 -0.2829
vn -0.1068 -0.9888 0.1041
vn -0.9591 -0.0174 0.2824
vn -0.6888 0.6418 -0.3371
vn -0.8873 -0.1605 0.4324
vn -0.1052 -0.9613 0.2548
vn -0.1452 -0.9792 0.1415
vn -0.4478 0.1520 -0.8811
vn -0.0841 -0.3017 -0.9497
vn 0.0014 0.8783 -0.4781
vn -0.1318 -0.4031 -0.9056
vn 0.0009 0.9187 0.3950
vn -0.6974 0.6788 0.2299
vn -0.2957 -0.7373 -0.6074
vn -0.3304 0.8093 -0.4858
vn -0.1152 -0.0648 0.9912
vn -0.4306 -0.8785 0.2071
vn 0.0246 0.9996 -0.0111
vn -0.7386 0.5135 0.4368
vn -0.0866 -0.9961 -0.0146
vn -0.3302 -0.9438 -0.0156
vn -0.9901 -0.0426 0.1336
vn -0.9960 0.0635 -0.0631
vn -0.3725 -0.9205 0.1178
vn -0.4252 0.9051 0.0027
vn 0.1270 -0.9918 -0.0165
vn -0.7500 0.1428 -0.6458
vn -0.9887 -0.0008 -0.1501
vn -0.6664 -0.6583 0.3499
vn -0.7020 -0.7021 -0.1191
vn 0.7015 -0.7030 -0.1175
vn 0.5102 0.3391 0.7904
vn 0.9742 0.2192 0.0541
vn 0.8447 0.5349 -0.0200
vn 0.9884 0.0053 -0.1516
vn -0.6759 0.0668 -0.7339
vn 0.6665 -0.6583 0.3499
vn -0.0000 -0.7818 0.6236
vn 0.5636 -0.5592 0.6080
vn -0.5636 -0.5592 0.6080
vn -0.8235 0.0027 0.5672
vn -0.6032 0.6039 0.5210
vn -0.0000 0.8660 0.5001
vn 0.6032 0.6039 0.5210
vn 0.8235 0.0027 0.5672
vn -0.2437 -0.0788 -0.9666
vn 0.8611 0.3081 -0.4045
vn 0.4258 0.6133 -0.6653
vn -0.4968 -0.4261 -0.7561
vn 0.4906 -0.4286 -0.7587
vn 0.2437 -0.0789 -0.9666
vn 0.6759 0.0668 -0.7340
vn -0.1000 0.0440 -0.9940
vn 0.1000 0.0441 -0.9940
vn -0.5926 -0.0046 0.8055
vn 0.8119 -0.5613 0.1607
vn 0.6784 -0.7300 -0.0822
vn 0.9632 -0.2498 0.0997
vn 0.9942 -0.0351 -0.1013
vn 0.7377 -0.4775 -0.4773
vn 0.8804 -0.0763 -0.4681
vn 0.3254 -0.9447 0.0411
vn 0.7487 0.1634 0.6425
vn 0.2219 -0.7237 0.6535
vn -0.1600 -0.5252 0.8358
vn -0.0370 -0.9991 -0.0188
vn 0.3862 -0.6341 -0.6699
vn -0.0519 -0.4911 -0.8695
vn -0.4718 -0.6370 -0.6096
vn -0.0294 -0.7006 -0.7130
vn -0.8211 0.5538 -0.1385
vn -0.2681 0.9062 0.3269
vn -0.4745 0.5078 -0.7190
vn -0.2196 -0.9434 0.2487
vn -0.7411 -0.6540 -0.1518
vn -0.7719 0.5157 0.3718
vn -0.3696 -0.0250 0.9288
vn -0.8293 -0.4343 0.3517
vn -0.6126 -0.7808 -0.1229
vn 0.6125 -0.7808 -0.1229
vn 0.6854 -0.6604 -0.3068
vn 0.9119 0.3781 0.1593
vn -0.0000 -0.6582 -0.7528
vn -0.6853 -0.6604 -0.3068
vn -0.9119 0.3782 0.1593
vn -0.5514 -0.5339 -0.6411
vn 0.5513 -0.5339 -0.6411
vn -0.0000 0.9052 0.4250
vn 0.7374 0.6718 -0.0702
vn 0.8067 0.5597 0.1896
vn -0.0000 0.9991 0.0422
vn -0.7374 0.6718 -0.0702
vn -0.8067 0.5597 0.1896
vn -0.0000 0.6154 0.7882
vn 0.6321 0.6427 0.4329
vn 0.4233 0.4383 0.7929
vn -0.6321 0.6427 0.4329
vn -0.8927 0.0109 0.4505
vn -0.0000 0.0241 0.9997
vn -0.0000 0.9049 0.4256
vn -0.5944 0.0150 0.8041
vn -0.6304 -0.6193 0.4680
vn 0.4172 -0.4021 0.8150
vn -0.0000 -0.8798 0.4753
vn -0.0000 -0.5730 0.8196
vn 0.8927 0.0109 0.4505
vn 0.5944 0.0150 0.8041
vn -0.4233 0.4383 0.7929
vn -0.4172 -0.4021 0.8150
vn 0.6304 -0.6193 0.4680
vn -0.0000 0.8439 0.5365
vn -0.0000 0.9311 0.3647
vn -0.0000 -0.0508 0.9987
vn 0.6943 0.4794 0.5368
vn 0.7338 -0.5183 0.4391
vn -0.6943 0.4794 0.5368
vn -0.0000 -0.9375 0.3479
vn -0.7338 -0.5183 0.4391
vn -0.0000 0.9918 -0.1277
vn -0.6766 0.7337 -0.0623
vn 0.6766 0.7337 -0.0623
vn 0.9899 0.0651 0.1263
vn 0.7001 -0.6345 0.3274
vn -0.7001 -0.6345 0.3274
vn -0.0000 -0.9157 0.4018
vn -0.9899 0.0651 0.1263
vn 0.4032 -0.3843 0.8305
vn 0.4053 0.4240 0.8099
vn -0.5717 0.0188 0.8202
vn -0.4053 0.4240 0.8099
vn -0.0000 -0.5506 0.8348
vn -0.4032 -0.3843 0.8305
vn 0.5717 0.0188 0.8202
vn -0.0000 0.5924 0.8056
vn 0.0956 -0.0537 0.9940
vn -0.2498 0.2434 0.9372
vn 0.1906 -0.0449 0.9806
vn -0.0000 0.1428 0.9897
vn -0.1906 -0.0449 0.9806
vn 0.2498 0.2434 0.9372
vn -0.0956 -0.0537 0.9940
vn -0.0000 0.4009 0.9161
s 1
usemtl Material.001
f 41//1 8//2 36//3
f 156//4 37//5 160//6
f 40//7 10//8 38//9
f 158//10 1//11 19//12
f 21//13 6//14 23//15
f 27//16 5//17 21//13
f 38//9 11//18 39//19
f 39//19 7//20 6//14
f 23//15 6//14 7//20
f 2//21 156//4 157//22
f 4//23 13//24 15//25
f 4//23 11//18 10//8
f 20//26 13//24 9//27
f 19//12 14//28 27//16
f 37//5 13//24 40//7
f 11//18 24//29 7//20
f 2//21 20//26 9//27
f 57//30 29//31 56//32
f 59//33 31//34 58//35
f 60//36 29//31 42//37
f 186//38 33//39 43//40
f 185//41 32//42 35//43
f 34//44 183//45 184//46
f 195//47 43//40 32//42
f 162//48 45//49 163//50
f 1//11 40//7 14//28
f 5//17 39//19 6//14
f 14//28 38//9 5//17
f 159//51 37//5 1//11
f 17//52 36//3 3//53
f 47//54 50//55 46//56
f 43//40 46//56 32//42
f 59//33 46//56 61//57
f 60//36 44//58 62//59
f 51//60 54//61 50//55
f 163//50 49//62 161//63
f 62//59 48//64 64//65
f 61//57 50//55 63//66
f 65//67 52//68 53//69
f 53//69 48//64 49//62
f 64//65 52//68 66//70
f 50//55 65//67 63//66
f 63//66 53//69 49//62
f 51//60 66//70 55//71
f 54//61 66//70 65//67
f 61//57 49//62 45//49
f 62//59 51//60 47//54
f 60//36 47//54 43//40
f 59//33 45//49 28//72
f 43//40 56//32 60//36
f 32//42 58//35 35//43
f 57//30 33//39 34//44
f 67//73 83//74 69//75
f 69//75 85//76 71//77
f 71//77 86//78 73//79
f 73//79 87//80 75//81
f 87//80 165//82 75//81
f 178//83 171//84 173//85
f 166//86 81//87 79//88
f 90//89 67//73 81//87
f 73//79 126//90 71//77
f 83//74 118//91 85//76
f 85//76 119//92 86//78
f 86//78 120//93 87//80
f 164//94 120//93 121//95
f 166//86 121//95 122//96
f 90//89 122//96 123//97
f 84//98 123//97 116//99
f 68//100 117//101 116//99
f 68//100 123//97 82//102
f 82//102 122//96 80//103
f 80//103 121//95 78//104
f 78//104 120//93 76//105
f 74//106 120//93 119//92
f 72//107 119//92 118//91
f 70//108 118//91 117//101
f 84//98 117//101 83//74
f 139//109 154//110 138//111
f 177//112 175//113 171//84
f 75//81 127//114 73//79
f 79//88 131//115 169//116
f 71//77 125//117 69//75
f 75//81 168//118 128//119
f 81//87 124//120 131//115
f 69//75 124//120 67//73
f 144//121 134//122 145//123
f 146//124 132//125 147//126
f 140//127 132//125 139//109
f 142//128 138//111 137//129
f 143//130 135//131 144//121
f 145//123 133//132 146//124
f 141//133 139//109 138//111
f 143//130 137//129 136//134
f 126//90 146//124 125//117
f 127//114 143//130 144//121
f 169//116 142//128 168//118
f 131//115 147//126 140//127
f 125//117 147//126 124//120
f 126//90 144//121 145//123
f 168//118 143//130 128//119
f 169//116 140//127 141//133
f 137//129 152//135 136//134
f 134//122 151//136 150//137
f 132//125 149//138 148//139
f 132//125 155//140 139//109
f 138//111 153//141 137//129
f 135//131 152//135 151//136
f 133//132 150//137 149//138
f 22//142 11//18 4//23
f 157//22 29//31 30//143
f 31//34 159//51 158//10
f 29//31 160//6 42//37
f 162//48 44//58 42//37
f 44//58 161//63 48//64
f 162//48 160//6 159//51
f 88//144 165//82 164//94
f 89//145 164//94 166//86
f 89//145 79//88 167//146
f 129//147 169//116 168//118
f 130//148 79//88 169//116
f 129//147 165//82 77//149
f 170//150 173//85 171//84
f 170//150 175//113 174//151
f 179//152 170//150 180//153
f 180//153 174//151 181//154
f 181//154 175//113 176//155
f 179//152 173//85 172//156
f 88//144 178//83 179//152
f 129//147 176//155 130//148
f 77//149 181//154 129//147
f 88//144 180//153 77//149
f 167//146 176//155 177//112
f 89//145 177//112 178//83
f 182//157 188//158 189//159
f 18//160 183//45 8//2
f 17//52 182//157 185//41
f 8//2 186//38 36//3
f 190//161 191//162 187//163
f 186//38 187//163 36//3
f 195//47 189//159 196//164
f 3//53 187//163 188//158
f 192//165 194//166 193//167
f 188//158 191//162 192//165
f 196//164 189//159 193//167
f 189//159 192//165 193//167
f 195//47 190//161 186//38
f 190//161 193//167 194//166
f 198//168 199//169 197//170
f 200//171 203//172 199//169
f 203//172 202//173 201//174
f 202//173 197//170 201//174
f 203//172 205//175 199//169
f 204//176 216//177 202//173
f 206//178 212//179 208//180
f 199//169 206//178 197//170
f 201//174 207//181 203//172
f 197//170 208//180 201//174
f 211//182 210//183 209//184
f 207//181 209//184 205//175
f 208//180 211//182 207//181
f 206//178 209//184 210//183
f 214//185 216//177 215//186
f 200//171 213//187 214//185
f 202//173 213//187 198//168
f 204//176 214//185 215//186
f 218//188 219//189 217//190
f 230//191 224//192 223//193
f 223//193 222//194 221//195
f 223//193 232//196 230//191
f 219//189 232//196 217//190
f 220//197 230//191 219//189
f 32//42 182//157 195//47
f 195//47 186//38 43//40
f 159//51 28//72 162//48
f 162//48 42//37 160//6
f 52//68 48//64 53//69
f 48//64 161//63 49//62
f 154//110 243//198 242//199
f 150//137 237//200 149//138
f 152//135 239//201 151//136
f 153//141 242//199 241//202
f 155//140 236//203 243//198
f 152//135 241//202 240//204
f 151//136 238//205 150//137
f 149//138 236//203 148//139
f 41//1 249//206 18//160
f 264//207 380//208 382//209
f 267//210 251//211 254//212
f 158//10 244//213 381//214
f 21//13 248//215 247//216
f 27//16 247//216 255//217
f 265//218 252//219 251//211
f 7//20 266//220 248//215
f 23//15 7//20 248//215
f 380//208 2//21 157//22
f 254//212 246//221 256//222
f 246//221 251//211 252//219
f 258//223 254//212 256//222
f 19//12 255//217 244//213
f 264//207 254//212 250//224
f 252//219 7//20 24//29
f 2//21 250//224 258//223
f 57//30 260//225 30//143
f 31//34 283//226 58//35
f 284//227 260//225 282//228
f 406//229 262//230 405//231
f 185//41 261//232 404//233
f 405//231 34//44 184//46
f 415//234 261//232 269//235
f 384//236 271//237 259//238
f 244//213 267//210 264//207
f 247//216 266//220 265//218
f 255//217 265//218 267//210
f 381//214 264//207 382//209
f 17//52 263//239 41//1
f 276//240 273//241 272//242
f 272//242 269//235 261//232
f 283//226 272//242 261//232
f 284//227 270//243 268//244
f 280//245 277//246 276//240
f 385//247 275//248 271//237
f 286//249 274//250 270//243
f 285//251 276//240 272//242
f 289//252 278//253 290//254
f 279//255 275//248 274//250
f 288//256 278//253 274//250
f 289//252 276//240 287//257
f 279//255 287//257 275//248
f 277//246 290//254 288//256
f 280//245 290//254 281//258
f 275//248 285//251 271//237
f 277//246 286//249 273//241
f 273//241 284//227 269//235
f 271//237 283//226 259//238
f 269//235 282//228 262//230
f 58//35 261//232 35//43
f 262//230 57//30 34//44
f 291//73 307//89 308//98
f 293//87 309//86 307//89
f 295//259 310//260 309//86
f 297//261 311//80 310//260
f 387//262 311//80 299//81
f 400//263 393//264 399//265
f 305//75 388//76 303//266
f 291//73 314//74 305//75
f 350//267 297//261 295//259
f 342//96 307//89 309//86
f 343//95 309//86 310//260
f 344//93 310//260 311//80
f 386//268 344//93 311//80
f 388//76 345//92 386//268
f 314//74 346//91 388//76
f 308//98 347//101 314//74
f 292//269 341//97 294//270
f 347//101 292//269 306//271
f 346//91 306//271 304//272
f 345//92 304//272 302//273
f 344//93 302//273 300//274
f 298//275 344//93 300//274
f 296//276 343//95 298//275
f 294//270 342//96 296//276
f 341//97 308//98 307//89
f 378//137 363//277 362//122
f 399//265 397//278 398//279
f 351//280 299//81 297//261
f 303//266 355//117 305//75
f 349//115 295//259 293//87
f 299//81 390//281 387//262
f 305//75 348//120 291//73
f 348//120 293//87 291//73
f 358//111 368//128 369//133
f 356//125 370//127 371//126
f 364//124 356//125 371//126
f 366//121 362//122 365//123
f 359//129 367//130 368//128
f 357//282 369//133 370//127
f 365//123 363//277 364//124
f 367//130 361//131 366//121
f 370//127 350//267 349//115
f 351//280 367//130 352//119
f 366//121 391//283 390//281
f 355//117 371//126 348//120
f 371//126 349//115 348//120
f 350//267 368//128 351//280
f 367//130 390//281 352//119
f 391//283 364//124 355//117
f 376//135 361//131 360//134
f 358//111 375//284 359//129
f 356//125 373//140 357//282
f 379//138 356//125 363//277
f 377//285 362//122 361//131
f 359//129 376//135 360//134
f 357//282 374//110 358//111
f 252//219 22//142 246//221
f 260//225 157//22 30//143
f 31//34 381//214 259//238
f 382//209 260//225 268//244
f 270//243 384//236 268//244
f 270//243 383//286 385//247
f 384//236 381//214 382//209
f 312//287 387//262 301//288
f 313//289 386//268 312//287
f 303//266 313//289 389//290
f 353//291 391//283 354//292
f 354//292 303//266 389//290
f 387//262 353//291 301//288
f 392//293 395//294 394//295
f 392//293 397//278 393//264
f 392//293 401//296 402//297
f 396//298 402//297 403//299
f 397//278 403//299 398//279
f 401//296 395//294 400//263
f 312//287 400//263 313//289
f 398//279 353//291 354//292
f 403//299 301//288 353//291
f 402//297 312//287 301//288
f 389//290 398//279 354//292
f 313//289 399//265 389//290
f 404//233 408//300 245//301
f 18//160 405//231 184//46
f 17//52 404//233 245//301
f 406//229 249//206 263//239
f 411//302 410//303 407//304
f 407//304 406//229 263//239
f 415//234 409//305 404//233
f 245//301 407//304 263//239
f 412//306 414//307 411//302
f 408//300 411//302 407//304
f 416//308 413//309 409//305
f 409//305 412//306 408//300
f 410//303 415//234 406//229
f 410//303 413//309 416//308
f 419//172 418//173 417//174
f 423//169 420//176 419//172
f 423//169 422//168 424//171
f 417//174 422//168 421//170
f 425//181 423//169 419//172
f 436//187 424//171 422//168
f 432//183 426//180 428//178
f 426//180 419//172 417//174
f 427//175 421//170 423//169
f 428//178 417//174 421//170
f 430//179 431//310 429//311
f 429//311 427//175 425//181
f 431//310 428//178 427//175
f 426//180 429//311 425//181
f 436//187 434//186 435//185
f 420//176 433//177 418//173
f 433//177 422//168 418//173
f 424//171 434//186 420//176
f 439//312 438//313 437//195
f 450//191 444//197 451//314
f 443//315 442//316 444//197
f 452//196 443//315 450//191
f 439//312 452//196 450//191
f 450//191 440//192 439//312
f 261//232 415//234 404//233
f 415//234 269//235 406//229
f 381//214 384//236 259//238
f 384//236 382//209 268//244
f 278//253 279//255 274//250
f 274//250 275//248 383//286
f 378//137 463//317 379//138
f 457//318 374//110 373//140
f 459//202 376//135 375//284
f 377//285 462//205 378//137
f 379//138 456//203 372//139
f 376//135 461//201 377//285
f 458//199 375//284 374//110
f 456//203 373//140 372//139
f 41//1 18//160 8//2
f 156//4 9//27 37//5
f 40//7 13//24 10//8
f 158//10 159//51 1//11
f 21//13 5//17 6//14
f 27//16 14//28 5//17
f 38//9 10//8 11//18
f 39//19 11//18 7//20
f 2//21 9//27 156//4
f 4//23 10//8 13//24
f 20//26 15//25 13//24
f 19//12 1//11 14//28
f 37//5 9//27 13//24
f 57//30 30//143 29//31
f 59//33 28//72 31//34
f 60//36 56//32 29//31
f 186//38 183//45 33//39
f 185//41 182//157 32//42
f 34//44 33//39 183//45
f 162//48 28//72 45//49
f 1//11 37//5 40//7
f 5//17 38//9 39//19
f 14//28 40//7 38//9
f 159//51 160//6 37//5
f 17//52 41//1 36//3
f 47//54 51//60 50//55
f 43//40 47//54 46//56
f 59//33 32//42 46//56
f 60//36 42//37 44//58
f 51//60 55//71 54//61
f 163//50 45//49 49//62
f 62//59 44//58 48//64
f 61//57 46//56 50//55
f 65//67 66//70 52//68
f 64//65 48//64 52//68
f 50//55 54//61 65//67
f 63//66 65//67 53//69
f 51//60 64//65 66//70
f 54//61 55//71 66//70
f 61//57 63//66 49//62
f 62//59 64//65 51//60
f 60//36 62//59 47//54
f 59//33 61//57 45//49
f 43//40 33//39 56//32
f 32//42 59//33 58//35
f 57//30 56//32 33//39
f 67//73 84//98 83//74
f 69//75 83//74 85//76
f 71//77 85//76 86//78
f 73//79 86//78 87//80
f 87//80 164//94 165//82
f 178//83 177//112 171//84
f 166//86 90//89 81//87
f 90//89 84//98 67//73
f 73//79 127//114 126//90
f 83//74 117//101 118//91
f 85//76 118//91 119//92
f 86//78 119//92 120//93
f 164//94 87//80 120//93
f 166//86 164//94 121//95
f 90//89 166//86 122//96
f 84//98 90//89 123//97
f 68//100 70//108 117//101
f 68//100 116//99 123//97
f 82//102 123//97 122//96
f 80//103 122//96 121//95
f 78//104 121//95 120//93
f 74//106 76//105 120//93
f 72//107 74//106 119//92
f 70//108 72//107 118//91
f 84//98 116//99 117//101
f 139//109 155//140 154//110
f 177//112 176//155 175//113
f 75//81 128//119 127//114
f 79//88 81//87 131//115
f 71//77 126//90 125//117
f 75//81 165//82 168//118
f 81//87 67//73 124//120
f 69//75 125//117 124//120
f 144//121 135//131 134//122
f 146//124 133//132 132//125
f 140//127 147//126 132//125
f 142//128 141//133 138//111
f 143//130 136//134 135//131
f 145//123 134//122 133//132
f 141//133 140//127 139//109
f 143//130 142//128 137//129
f 126//90 145//123 146//124
f 127//114 128//119 143//130
f 169//116 141//133 142//128
f 131//115 124//120 147//126
f 125//117 146//124 147//126
f 126//90 127//114 144//121
f 168//118 142//128 143//130
f 169//116 131//115 140//127
f 137//129 153//141 152//135
f 134//122 135//131 151//136
f 132//125 133//132 149//138
f 132//125 148//139 155//140
f 138//111 154//110 153//141
f 135//131 136//134 152//135
f 133//132 134//122 150//137
f 22//142 24//29 11//18
f 157//22 156//4 29//31
f 31//34 28//72 159//51
f 29//31 156//4 160//6
f 162//48 163//50 44//58
f 44//58 163//50 161//63
f 88//144 77//149 165//82
f 89//145 88//144 164//94
f 89//145 166//86 79//88
f 129//147 130//148 169//116
f 130//148 167//146 79//88
f 129//147 168//118 165//82
f 170//150 172//156 173//85
f 170//150 171//84 175//113
f 179//152 172//156 170//150
f 180//153 170//150 174//151
f 181//154 174//151 175//113
f 179//152 178//83 173//85
f 88//144 89//145 178//83
f 129//147 181//154 176//155
f 77//149 180//153 181//154
f 88//144 179//152 180//153
f 167//146 130//148 176//155
f 89//145 167//146 177//112
f 182//157 3//53 188//158
f 18//160 184//46 183//45
f 17//52 3//53 182//157
f 8//2 183//45 186//38
f 190//161 194//166 191//162
f 186//38 190//161 187//163
f 195//47 182//157 189//159
f 3//53 36//3 187//163
f 192//165 191//162 194//166
f 188//158 187//163 191//162
f 189//159 188//158 192//165
f 195//47 196//164 190//161
f 190//161 196//164 193//167
f 198//168 200//171 199//169
f 200//171 204//176 203//172
f 203//172 204//176 202//173
f 202//173 198//168 197//170
f 203//172 207//181 205//175
f 204//176 215//186 216//177
f 206//178 210//183 212//179
f 199//169 205//175 206//178
f 201//174 208//180 207//181
f 197//170 206//178 208//180
f 211//182 212//179 210//183
f 207//181 211//182 209//184
f 208//180 212//179 211//182
f 206//178 205//175 209//184
f 214//185 213//187 216//177
f 200//171 198//168 213//187
f 202//173 216//177 213//187
f 204//176 200//171 214//185
f 218//188 220//197 219//189
f 230//191 231//314 224//192
f 223//193 224//192 222//194
f 223//193 221//195 232//196
f 219//189 230//191 232//196
f 220//197 231//314 230//191
f 154//110 155//140 243//198
f 150//137 238//205 237//200
f 152//135 240//204 239//201
f 153//141 154//110 242//199
f 155//140 148//139 236//203
f 152//135 153//141 241//202
f 151//136 239//201 238//205
f 149//138 237//200 236//203
f 41//1 263//239 249//206
f 264//207 250//224 380//208
f 267//210 265//218 251//211
f 158//10 19//12 244//213
f 21//13 23//15 248//215
f 27//16 21//13 247//216
f 265//218 266//220 252//219
f 7//20 252//219 266//220
f 380//208 250//224 2//21
f 254//212 251//211 246//221
f 258//223 250//224 254//212
f 19//12 27//16 255//217
f 264//207 267//210 254//212
f 57//30 282//228 260//225
f 31//34 259//238 283//226
f 284//227 268//244 260//225
f 406//229 269//235 262//230
f 185//41 35//43 261//232
f 405//231 262//230 34//44
f 384//236 385//247 271//237
f 244//213 255//217 267//210
f 247//216 248//215 266//220
f 255//217 247//216 265//218
f 381//214 244//213 264//207
f 17//52 245//301 263//239
f 276//240 277//246 273//241
f 272//242 273//241 269//235
f 283//226 285//251 272//242
f 284//227 286//249 270//243
f 280//245 281//258 277//246
f 385//247 383//286 275//248
f 286//249 288//256 274//250
f 285//251 287//257 276//240
f 289//252 279//255 278//253
f 288//256 290//254 278//253
f 289//252 280//245 276//240
f 279//255 289//252 287//257
f 277//246 281//258 290//254
f 280//245 289//252 290//254
f 275//248 287//257 285//251
f 277//246 288//256 286//249
f 273//241 286//249 284//227
f 271//237 285//251 283//226
f 269//235 284//227 282//228
f 58//35 283//226 261//232
f 262//230 282//228 57//30
f 291//73 293//87 307//89
f 293//87 295//259 309//86
f 295//259 297//261 310//260
f 297//261 299//81 311//80
f 387//262 386//268 311//80
f 400//263 395//294 393//264
f 305//75 314//74 388//76
f 291//73 308//98 314//74
f 350//267 351//280 297//261
f 342//96 341//97 307//89
f 343//95 342//96 309//86
f 344//93 343//95 310//260
f 386//268 345//92 344//93
f 388//76 346//91 345//92
f 314//74 347//101 346//91
f 308//98 340//99 347//101
f 292//269 340//99 341//97
f 347//101 340//99 292//269
f 346//91 347//101 306//271
f 345//92 346//91 304//272
f 344//93 345//92 302//273
f 298//275 343//95 344//93
f 296//276 342//96 343//95
f 294//270 341//97 342//96
f 341//97 340//99 308//98
f 378//137 379//138 363//277
f 399//265 393//264 397//278
f 351//280 352//119 299//81
f 303//266 391//283 355//117
f 349//115 350//267 295//259
f 299//81 352//119 390//281
f 305//75 355//117 348//120
f 348//120 349//115 293//87
f 358//111 359//129 368//128
f 356//125 357//282 370//127
f 364//124 363//277 356//125
f 366//121 361//131 362//122
f 359//129 360//134 367//130
f 357//282 358//111 369//133
f 365//123 362//122 363//277
f 367//130 360//134 361//131
f 370//127 369//133 350//267
f 351//280 368//128 367//130
f 366//121 365//123 391//283
f 355//117 364//124 371//126
f 371//126 370//127 349//115
f 350//267 369//133 368//128
f 367//130 366//121 390//281
f 391//283 365//123 364//124
f 376//135 377//285 361//131
f 358//111 374//110 375//284
f 356//125 372//139 373//140
f 379//138 372//139 356//125
f 377//285 378//137 362//122
f 359//129 375//284 376//135
f 357//282 373//140 374//110
f 252//219 24//29 22//142
f 260//225 380//208 157//22
f 31//34 158//10 381//214
f 382//209 380//208 260//225
f 270//243 385//247 384//236
f 270//243 274//250 383//286
f 312//287 386//268 387//262
f 313//289 388//76 386//268
f 303//266 388//76 313//289
f 353//291 390//281 391//283
f 354//292 391//283 303//266
f 387//262 390//281 353//291
f 392//293 393//264 395//294
f 392//293 396//298 397//278
f 392//293 394//295 401//296
f 396//298 392//293 402//297
f 397//278 396//298 403//299
f 401//296 394//295 395//294
f 312//287 401//296 400//263
f 398//279 403//299 353//291
f 403//299 402//297 301//288
f 402//297 401//296 312//287
f 389//290 399//265 398//279
f 313//289 400//263 399//265
f 404//233 409//305 408//300
f 18//160 249//206 405//231
f 17//52 185//41 404//233
f 406//229 405//231 249//206
f 411//302 414//307 410//303
f 407//304 410//303 406//229
f 415//234 416//308 409//305
f 245//301 408//300 407//304
f 412//306 413//309 414//307
f 408//300 412//306 411//302
f 409//305 413//309 412//306
f 410//303 416//308 415//234
f 410//303 414//307 413//309
f 419//172 420//176 418//173
f 423//169 424//171 420//176
f 423//169 421//170 422//168
f 417//174 418//173 422//168
f 425//181 427//175 423//169
f 436//187 435//185 424//171
f 432//183 430//179 426//180
f 426//180 425//181 419//172
f 427//175 428//178 421//170
f 428//178 426//180 417//174
f 430//179 432//183 431//310
f 429//311 431//310 427//175
f 431//310 432//183 428//178
f 426//180 430//179 429//311
f 436//187 433//177 434//186
f 420//176 434//186 433//177
f 433//177 436//187 422//168
f 424//171 435//185 434//186
f 439//312 440//192 438//313
f 450//191 443//315 444//197
f 443//315 441//190 442//316
f 452//196 441//190 443//315
f 439//312 437//195 452//196
f 450//191 451//314 440//192
f 378//137 462//205 463//317
f 457//318 458//199 374//110
f 459//202 460//204 376//135
f 377//285 461//201 462//205
f 379//138 463//317 456//203
f 376//135 460//204 461//201
f 458//199 459//202 375//284
f 456//203 457//318 373//140
usemtl Material.002
f 4//23 26//319 22//142
f 15//25 12//320 16//321
f 20//26 2//21 12//320
f 4//23 15//25 16//321
f 25//322 16//321 12//320
f 2//21 25//322 12//320
f 26//319 246//221 22//142
f 256//222 253//323 258//223
f 258//223 253//323 2//21
f 246//221 257//324 256//222
f 257//324 25//322 253//323
f 2//21 253//323 25//322
f 4//23 16//321 26//319
f 15//25 20//26 12//320
f 25//322 26//319 16//321
f 26//319 257//324 246//221
f 256//222 257//324 253//323
f 257//324 26//319 25//322
usemtl Material.003
f 92//325 107//326 91//327
f 114//328 113//329 115//330
f 92//325 114//328 108//331
f 97//332 112//333 113//329
f 94//334 111//335 95//336
f 91//327 109//337 93//338
f 98//339 113//329 114//328
f 96//340 111//335 112//333
f 93//338 110//341 94//334
f 112//333 111//335 115//330
f 110//341 109//337 115//330
f 107//326 108//331 115//330
f 108//331 114//328 115//330
f 113//329 112//333 115//330
f 111//335 110//341 115//330
f 109//337 107//326 115//330
f 218//188 235//342 233//343
f 235//342 229//344 227//345
f 221//195 227//345 228//346
f 217//190 226//347 218//188
f 221//195 234//348 232//196
f 228//346 227//345 229//344
f 234//348 229//344 225//349
f 226//347 225//349 229//344
f 217//190 234//348 225//349
f 222//194 235//342 227//345
f 331//328 316//350 315//351
f 338//326 339//330 337//337
f 316//350 338//326 322//352
f 321//353 336//341 320//354
f 335//335 318//355 319//356
f 333//329 315//351 317//357
f 322//352 337//337 321//353
f 320//354 335//335 319//356
f 334//333 317//357 318//355
f 336//341 339//330 335//335
f 334//333 339//330 333//329
f 331//328 339//330 332//331
f 332//331 339//330 338//326
f 337//337 339//330 336//341
f 335//335 339//330 334//333
f 333//329 339//330 331//328
f 455//342 438//313 453//343
f 449//344 455//342 447//347
f 441//190 447//347 442//316
f 446//345 437//195 438//313
f 454//348 441//190 452//196
f 448//349 449//344 447//347
f 449//344 454//348 445//346
f 446//345 449//344 445//346
f 437//195 454//348 452//196
f 442//316 455//342 453//343
f 92//325 108//331 107//326
f 92//325 98//339 114//328
f 97//332 96//340 112//333
f 94//334 110//341 111//335
f 91//327 107//326 109//337
f 98//339 97//332 113//329
f 96//340 95//336 111//335
f 93//338 109//337 110//341
f 218//188 226//347 235//342
f 235//342 226//347 229//344
f 221//195 222//194 227//345
f 217//190 225//349 226//347
f 221//195 228//346 234//348
f 234//348 228//346 229//344
f 217//190 232//196 234//348
f 222//194 233//343 235//342
f 331//328 332//331 316//350
f 316//350 332//331 338//326
f 321//353 337//337 336//341
f 335//335 334//333 318//355
f 333//329 331//328 315//351
f 322//352 338//326 337//337
f 320//354 336//341 335//335
f 334//333 333//329 317//357
f 455//342 446//345 438//313
f 449//344 446//345 455//342
f 441//190 448//349 447//347
f 446//345 445//346 437//195
f 454//348 448//349 441//190
f 449//344 448//349 454//348
f 437//195 445//346 454//348
f 442//316 447//347 455//342
usemtl Material.004
f 80//103 106//358 82//102
f 76//105 104//359 78//104
f 74//106 101//360 102//361
f 70//108 100//362 99//363
f 82//102 100//362 68//100
f 78//104 105//364 80//103
f 76//105 102//361 103//365
f 72//107 99//363 101//360
f 91//327 100//362 92//325
f 93//338 99//363 91//327
f 93//338 102//361 101//360
f 94//334 103//365 102//361
f 96//340 103//365 95//336
f 97//332 104//359 96//340
f 97//332 106//358 105//364
f 98//339 100//362 106//358
f 241//202 242//199 239//201
f 243//198 236//203 237//200
f 237//200 238//205 243//198
f 239//201 240//204 241//202
f 238//205 242//199 243//198
f 330//366 304//272 306//271
f 328//367 300//274 302//273
f 298//275 325//368 296//276
f 294//270 324//369 292//269
f 324//369 306//271 292//269
f 329//370 302//273 304//272
f 300//274 326//371 298//275
f 296//276 323//372 294//270
f 324//369 315//351 316//350
f 323//372 317//357 315//351
f 325//368 318//355 317//357
f 326//371 319//356 318//355
f 319//356 328//367 320//354
f 320//354 329//370 321//353
f 321//353 330//366 322//352
f 322//352 324//369 316//350
f 461//201 459//202 462//205
f 463//317 457//318 456//203
f 457//318 463//317 458//199
f 459//202 461//201 460//204
f 462//205 458//199 463//317
f 80//103 105//364 106//358
f 76//105 103//365 104//359
f 74//106 72//107 101//360
f 70//108 68//100 100//362
f 82//102 106//358 100//362
f 78//104 104//359 105//364
f 76//105 74//106 102//361
f 72//107 70//108 99//363
f 91//327 99//363 100//362
f 93//338 101//360 99//363
f 93//338 94//334 102//361
f 94//334 95//336 103//365
f 96//340 104//359 103//365
f 97//332 105//364 104//359
f 97//332 98//339 106//358
f 98//339 92//325 100//362
f 238//205 239//201 242//199
f 330//366 329//370 304//272
f 328//367 327//373 300//274
f 298//275 326//371 325//368
f 294//270 323//372 324//369
f 324//369 330//366 306//271
f 329//370 328//367 302//273
f 300//274 327//373 326//371
f 296//276 325//368 323//372
f 324//369 323//372 315//351
f 323//372 325//368 317//357
f 325//368 326//371 318//355
f 326//371 327//373 319//356
f 319//356 327//373 328//367
f 320//354 328//367 329//370
f 321//353 329//370 330//366
f 322//352 330//366 324//369
f 462//205 459//202 458//199
