# Blender 4.4.0
# www.blender.org
mtllib sphere.mtl
o Cube
v 0.345309 0.345309 -0.345309
v 0.345309 -0.345309 -0.345309
v 0.345309 0.345309 0.345309
v 0.345309 -0.345309 0.345309
v -0.345309 0.345309 -0.345309
v -0.345309 -0.345309 -0.345309
v -0.345309 0.345309 0.345309
v -0.345309 -0.345309 0.345309
v -0.422916 -0.422916 0.000000
v 0.000000 -0.422916 -0.422916
v 0.422916 -0.000000 -0.422916
v -0.422916 0.000000 0.422916
v 0.422916 0.000000 0.422916
v -0.422916 -0.000000 -0.422916
v 0.000000 0.422916 0.422916
v 0.422916 0.422916 -0.000000
v 0.000000 -0.422916 0.422916
v -0.422916 0.422916 -0.000000
v 0.000000 0.422916 -0.422916
v 0.422916 -0.422916 0.000000
v 0.950871 0.000000 0.000000
v 0.000000 -0.000000 -0.950871
v 0.000000 -0.950871 0.000000
v -0.950871 0.000000 0.000000
v 0.000000 0.000000 0.950871
v 0.000000 0.950871 -0.000000
v 0.124586 -0.000000 -0.546488
v 0.056672 -0.000000 -0.619681
v 0.000000 -0.124586 -0.546488
v 0.000000 -0.056672 -0.619681
v -0.124586 -0.000000 -0.546488
v -0.056672 -0.000000 -0.619681
v 0.000000 0.056672 -0.619681
v 0.000000 0.124586 -0.546488
v 0.546488 0.000000 0.124586
v 0.619681 0.000000 0.056672
v 0.546488 -0.124586 0.000000
v 0.619681 -0.056672 0.000000
v 0.546488 -0.000000 -0.124586
v 0.619681 -0.000000 -0.056672
v 0.619681 0.056672 -0.000000
v 0.546488 0.124586 -0.000000
v 0.000000 -0.546488 0.124586
v 0.000000 -0.619681 0.056672
v -0.124586 -0.546488 0.000000
v -0.056672 -0.619681 0.000000
v 0.000000 -0.546488 -0.124586
v 0.000000 -0.619681 -0.056672
v 0.056672 -0.619681 0.000000
v 0.124586 -0.546488 0.000000
v -0.546488 -0.000000 -0.124586
v -0.619681 -0.000000 -0.056672
v -0.546488 -0.124586 0.000000
v -0.619681 -0.056672 0.000000
v -0.546488 0.000000 0.124586
v -0.619681 0.000000 0.056672
v -0.619681 0.056672 -0.000000
v -0.546488 0.124586 -0.000000
v -0.124586 0.000000 0.546488
v -0.056672 0.000000 0.619681
v 0.000000 -0.124586 0.546488
v 0.000000 -0.056672 0.619681
v 0.124586 0.000000 0.546488
v 0.056672 0.000000 0.619681
v 0.000000 0.056672 0.619681
v 0.000000 0.124586 0.546488
v 0.000000 0.546488 0.124586
v 0.000000 0.619681 0.056672
v 0.124586 0.546488 -0.000000
v 0.056672 0.619681 -0.000000
v 0.000000 0.546488 -0.124586
v 0.000000 0.619681 -0.056672
v -0.056672 0.619681 -0.000000
v -0.124586 0.546488 -0.000000
vn 0.4929 -0.0000 -0.8701
vn -0.0000 0.8634 -0.5045
vn 0.0075 0.4716 -0.8818
vn -0.0133 -0.4821 -0.8760
vn 0.8634 -0.0000 -0.5045
vn -0.4822 -0.0208 -0.8758
vn -0.0000 -0.8634 -0.5045
vn -0.8634 -0.0000 -0.5045
vn 0.8701 -0.0000 0.4929
vn 0.5045 0.8634 -0.0000
vn 0.8818 0.4716 0.0075
vn 0.8760 -0.4821 -0.0133
vn 0.5045 -0.0000 0.8634
vn 0.8758 -0.0208 -0.4822
vn 0.5045 -0.8634 -0.0000
vn 0.5045 -0.0000 -0.8634
vn -0.0000 -0.8701 0.4929
vn 0.8634 -0.5045 -0.0000
vn 0.4716 -0.8818 0.0075
vn -0.4821 -0.8760 -0.0133
vn -0.0000 -0.5045 0.8634
vn -0.0208 -0.8758 -0.4822
vn -0.8634 -0.5045 -0.0000
vn -0.0000 -0.5045 -0.8634
vn -0.8701 -0.0000 -0.4929
vn -0.5045 0.8634 -0.0000
vn -0.8818 0.4716 -0.0075
vn -0.8760 -0.4821 0.0133
vn -0.5045 -0.0000 -0.8634
vn -0.8758 -0.0208 0.4822
vn -0.5045 -0.8634 -0.0000
vn -0.5045 -0.0000 0.8634
vn -0.4929 -0.0000 0.8701
vn -0.0000 0.8634 0.5045
vn -0.0075 0.4716 0.8818
vn 0.0133 -0.4821 0.8760
vn -0.8634 -0.0000 0.5045
vn 0.4822 -0.0208 0.8758
vn -0.0000 -0.8634 0.5045
vn 0.8634 -0.0000 0.5045
vn -0.0000 0.8701 0.4929
vn -0.8634 0.5045 -0.0000
vn -0.4716 0.8818 0.0075
vn 0.4821 0.8760 -0.0133
vn -0.0000 0.5045 0.8634
vn 0.0208 0.8758 -0.4822
vn 0.8634 0.5045 -0.0000
vn -0.0000 0.5045 -0.8634
vn 0.5651 0.5980 -0.5684
vn 0.7074 -0.0114 -0.7067
vn -0.0000 -0.0000 -1.0000
vn 0.5998 -0.5632 -0.5683
vn -0.7067 -0.0114 -0.7074
vn -0.0229 -0.7069 -0.7069
vn -0.5801 0.5750 -0.5769
vn 0.5778 0.5778 0.5765
vn 0.7067 -0.0114 0.7074
vn 1.0000 -0.0000 -0.0000
vn 0.5660 -0.5660 0.5995
vn 0.7142 -0.6999 -0.0114
vn -0.0000 -1.0000 -0.0000
vn 0.0114 -0.7067 0.7074
vn -0.5976 -0.5660 0.5679
vn -0.7071 -0.7071 -0.0000
vn -1.0000 -0.0000 -0.0000
vn -0.5564 -0.5866 -0.5885
vn -0.7074 -0.0114 0.7067
vn -0.5746 0.5778 0.5797
vn -0.0000 -0.0000 1.0000
vn -0.0000 1.0000 -0.0000
vn -0.0000 0.7139 0.7003
vn 0.0113 0.7142 -0.6999
vn 0.6999 0.7142 -0.0114
vn -0.7071 0.7071 -0.0000
s 1
usemtl Material.001
f 29//4 28//5 27//1
f 37//12 36//13 35//9
f 39//14 38//15 37//12
f 43//17 49//18 50//19
f 45//20 44//21 43//17
f 47//22 46//23 45//20
f 50//19 48//24 47//22
f 53//28 52//29 51//25
f 61//36 60//37 59//33
f 30//7 22//51 28//5
f 29//4 11//50 2//52
f 28//5 22//51 33//2
f 32//8 22//51 30//7
f 33//2 22//51 32//8
f 38//15 21//58 36//13
f 36//13 21//58 41//10
f 40//16 21//58 38//15
f 11//50 37//12 20//60
f 41//10 21//58 40//16
f 44//21 23//61 49//18
f 50//19 4//59 17//62
f 46//23 23//61 44//21
f 45//20 17//62 8//63
f 48//24 23//61 46//23
f 10//54 45//20 9//64
f 49//18 23//61 48//24
f 2//52 50//19 47//22
f 54//31 24//65 52//29
f 52//29 24//65 57//26
f 56//32 24//65 54//31
f 57//26 24//65 56//32
f 60//37 25//69 65//34
f 62//39 25//69 60//37
f 64//40 25//69 62//39
f 65//34 25//69 64//40
f 27//1 28//5 33//2
f 29//4 30//7 28//5
f 35//9 36//13 41//10
f 37//12 38//15 36//13
f 39//14 40//16 38//15
f 43//17 44//21 49//18
f 45//20 46//23 44//21
f 47//22 48//24 46//23
f 50//19 49//18 48//24
f 51//25 52//29 57//26
f 53//28 54//31 52//29
f 59//33 60//37 65//34
f 61//36 62//39 60//37
f 2//52 10//54 29//4
f 4//59 20//60 37//12
f 20//60 2//52 11//50
f 17//62 43//17 50//19
f 50//19 20//60 4//59
f 8//63 9//64 45//20
f 45//20 43//17 17//62
f 10//54 47//22 45//20
f 47//22 10//54 2//52
f 2//52 20//60 50//19
usemtl Material.002
f 27//1 33//2 34//3
f 31//6 30//7 29//4
f 34//3 32//8 31//6
f 35//9 41//10 42//11
f 42//11 40//16 39//14
f 51//25 57//26 58//27
f 55//30 54//31 53//28
f 58//27 56//32 55//30
f 59//33 65//34 66//35
f 63//38 62//39 61//36
f 66//35 64//40 63//38
f 67//41 73//42 74//43
f 69//44 68//45 67//41
f 71//46 70//47 69//44
f 74//43 72//48 71//46
f 34//3 1//49 11//50
f 14//53 29//4 10//54
f 5//55 34//3 31//6
f 42//11 3//56 13//57
f 37//12 13//57 4//59
f 1//49 42//11 39//14
f 58//27 5//55 14//53
f 53//28 14//53 6//66
f 12//67 53//28 9//64
f 7//68 58//27 55//30
f 66//35 7//68 12//67
f 61//36 12//67 8//63
f 13//57 61//36 17//62
f 3//56 66//35 63//38
f 68//45 26//70 73//42
f 74//43 7//68 15//71
f 70//47 26//70 68//45
f 69//44 15//71 3//56
f 72//48 26//70 70//47
f 19//72 69//44 16//73
f 73//42 26//70 72//48
f 5//55 74//43 71//46
f 31//6 32//8 30//7
f 34//3 33//2 32//8
f 42//11 41//10 40//16
f 55//30 56//32 54//31
f 58//27 57//26 56//32
f 63//38 64//40 62//39
f 66//35 65//34 64//40
f 67//41 68//45 73//42
f 69//44 70//47 68//45
f 71//46 72//48 70//47
f 74//43 73//42 72//48
f 11//50 27//1 34//3
f 34//3 19//72 1//49
f 29//4 27//1 11//50
f 10//54 6//66 14//53
f 14//53 31//6 29//4
f 31//6 14//53 5//55
f 5//55 19//72 34//3
f 13//57 35//9 42//11
f 42//11 16//73 3//56
f 37//12 35//9 13//57
f 11//50 39//14 37//12
f 39//14 11//50 1//49
f 1//49 16//73 42//11
f 9//64 6//66 10//54
f 14//53 51//25 58//27
f 58//27 18//74 5//55
f 6//66 9//64 53//28
f 53//28 51//25 14//53
f 9//64 8//63 12//67
f 12//67 55//30 53//28
f 55//30 12//67 7//68
f 7//68 18//74 58//27
f 12//67 59//33 66//35
f 66//35 15//71 7//68
f 8//63 17//62 61//36
f 61//36 59//33 12//67
f 17//62 4//59 13//57
f 13//57 63//38 61//36
f 63//38 13//57 3//56
f 3//56 15//71 66//35
f 15//71 67//41 74//43
f 74//43 18//74 7//68
f 3//56 16//73 69//44
f 69//44 67//41 15//71
f 16//73 1//49 19//72
f 19//72 71//46 69//44
f 71//46 19//72 5//55
f 5//55 18//74 74//43
